<svg height="100%" version="1.1" width="100%" xmlns="http://www.w3.org/2000/svg" preserveAspectRatio="xMidYMid meet" viewBox="0 0 600 442" xmlns:xlink="http://www.w3.org/1999/xlink"><desc>Created with Snap</desc><defs/><g id="root" contentwidth="394.4" contentheight="209.49999999999997">
          <rect class="background" height="2000%" width="2000%" y="-1000%" x="-1000%" style="" fill="#ffffff"/>
          <g class="content" id="content" transform="matrix(1,0,0,1,100,325.15)">
            <g class="icon" style="mask: url(#mask);">
            <svg height="147.7" version="1.1" width="147.7" xmlns="http://www.w3.org/2000/svg" x="126.14999999999999" y="-208.89999999999998"><desc>Created with Snap</desc><defs/><svg xmlns="http://www.w3.org/2000/svg" xmlns:xlink="http://www.w3.org/1999/xlink" id="Layer_1" style="enable-background:new 0 0 2100 2100;" version="1.1" viewBox="0 0 2100 2100" x="0px" xml:space="preserve" y="0px">
<style type="text/css">
	.st0{fill-rule:evenodd;clip-rule:evenodd;fill:#606060;}
	.st1{fill-rule:evenodd;clip-rule:evenodd;fill:url(#SVGID_1_);}
	.st2{fill-rule:evenodd;clip-rule:evenodd;fill:url(#SVGID_2_);}
	.st3{fill-rule:evenodd;clip-rule:evenodd;fill:url(#SVGID_3_);}
	.st4{fill-rule:evenodd;clip-rule:evenodd;fill:url(#SVGID_4_);}
	.st5{fill-rule:evenodd;clip-rule:evenodd;fill:#591BFF;}
	.st6{fill-rule:evenodd;clip-rule:evenodd;fill:#000A78;}
	.st7{fill:url(#SVGID_5_);}
	.st8{fill:url(#SVGID_6_);}
	.st9{fill:url(#SVGID_7_);}
	.st10{fill:url(#SVGID_8_);}
</style>
<g>
	<path class="st0" d="M1050,367.2c-291.2,0-527.2,236-527.2,527.2c0,291.2,236,527.2,527.2,527.2c291.2,0,527.2-236,527.2-527.2   C1577.2,603.3,1341.2,367.2,1050,367.2z M1050,1283.6c-214.9,0-389.1-174.2-389.1-389.1c0-214.9,174.2-389.1,389.1-389.1   c214.9,0,389,174.2,389,389.1S1264.8,1283.6,1050,1283.6z"/>
	<path class="st0" d="M1081.6,1490.2h-63.3c-20.5,0-37.5,17-37.5,37.5v167.7c0,20.5,16.9,37.5,37.5,37.5h63.3   c20.6,0,37.5-16.8,37.5-37.5v-167.7C1119.1,1507.1,1102.1,1490.2,1081.6,1490.2z"/>
</g>
<g>
	<linearGradient gradientUnits="userSpaceOnUse" id="SVGID_1_" x1="973.4252" x2="1201.7012" y1="-1.1592" y2="2626.6697">
		<stop offset="0" style="stop-color:#009FFF"/>
		<stop offset="1" style="stop-color:#0058E1"/>
	</linearGradient>
	<path class="st1" d="M1209.1,847.8c-30.6,30.6-80,30.6-110.6,0c-30.6-30.6-30.6-80,0-110.6c20.4-20.4,49.2-27.2,75.3-20.3   c-84.2-58.1-200.4-49.7-275.4,25.2c-84.5,84.4-84.5,221.2,0,305.7c84.5,84.4,221.2,84.4,305.7,0c74.9-75,83.3-191.2,25.2-275.4   C1236.3,798.5,1229.5,827.4,1209.1,847.8z"/>
	<linearGradient gradientUnits="userSpaceOnUse" id="SVGID_2_" x1="1640.6049" x2="1868.8809" y1="-59.1162" y2="2568.7126">
		<stop offset="0" style="stop-color:#009FFF"/>
		<stop offset="1" style="stop-color:#0058E1"/>
	</linearGradient>
	<path class="st2" d="M1746.6,703.3V500.7l-0.1-0.1c25.8-10,44.1-35.1,44.1-64.4c0-38.1-30.9-69.1-69.1-69.1   c-38.1,0-69.1,30.9-69.1,69.1c0,29.3,18.3,54.4,44.1,64.4v183.9c-15.8-3.7-32.3-5.7-49.1-5.7h-45.7   c26.1,66.8,40.4,139.5,40.4,215.5c0,76.1-14.3,148.8-40.4,215.5h45.7c118.5,0,215.5-96.9,215.5-215.5   C1863,811.6,1815.6,739.3,1746.6,703.3z"/>
	<linearGradient gradientUnits="userSpaceOnUse" id="SVGID_3_" x1="303.813" x2="532.0891" y1="57.0091" y2="2684.8379">
		<stop offset="0" style="stop-color:#009FFF"/>
		<stop offset="1" style="stop-color:#0058E1"/>
	</linearGradient>
	<path class="st3" d="M452.5,678.9L452.5,678.9c-16.9,0.1-33.4,2.1-49.1,5.8V500.7c25.8-10,44-35.1,44-64.4   c0-38.1-30.9-69.1-69.1-69.1s-69.1,30.9-69.1,69.1c0,29.3,18.3,54.4,44.1,64.4v202.6c-69,36-116.4,108.4-116.4,191.2   c0,118.5,97,215.5,215.5,215.5h45.7c-26.1-66.8-40.4-139.5-40.4-215.5c0-76,14.3-148.8,40.4-215.5H452.5z"/>
</g>
</svg></svg></g>
            <g id="icon_name_and_slogan_gap">
            </g>
            <g class="name_and_slogan" id="name_and_slogan_id">
              <g class="name"><g id="nameDefaultGroup"><path d="M51.1 -30L50.8 -27.3L15.2 -27.3L15.5 -30L3.2 -30L20.9 -49.2L19.3 -51.2L50 -51.2L63.4 -30L51.1 -30zM44.8 0.6L43.8 -1.2L5.8 0.6L6.8 -6L19.2 -17L2.8 -17L3.8 -23.8L61.2 -23.8L60.3 -17L34.2 -17L22.7 -6.8L40.4 -7.8L37.8 -12.9L50.1 -12.9L57.1 0.6L44.8 0.6zM20.7 -34.1L47.2 -34.1L40.7 -44.4L30 -44.4L20.7 -34.1zM82.1 0.6L98.8 -17.6L88.6 -34.7L90.5 -47.8L101.5 -47.8L100.1 -37.7L107.3 -25.5L118.4 -37.7L119.8 -47.8L130.8 -47.8L129 -34.7L113.8 -18.1L126 0.6L112.9 0.6L105.8 -9.9L96.1 0.6L82.1 0.6zM67.8 0.6L72.3 -30.7L68.3 -30.7L69.2 -37.5L85.7 -37.5L81.7 -9.2L86.6 -10.4L85.6 -3.5L67.8 0.6zM104.7 -48.5L102.4 -51.2L117.4 -51.2L115.7 -38.9L103.4 -38.9L104.7 -48.5zM84.1 -49.8L86.6 -40.2L75.7 -40.2L73.1 -49.8L84.1 -49.8zM175 -13.9L176.7 -12.2L182.6 -17L163.9 -17L167.8 -26.6L163.3 -26.6L164.2 -33.3L170.5 -33.3L172.7 -38.7L167.6 -38.7L168.6 -45.3L175.3 -45.3L177 -49.4L175.2 -51.2L188.9 -51.2L186.6 -45.3L197.4 -45.3L196.5 -38.7L184.1 -38.7L182.2 -33.3L197.5 -33.3L196.6 -26.6L179.6 -26.6L178.3 -23.2L193.9 -23.2L192.6 -14.7L182.6 -6.4L189.7 0.6L176.8 0.6L162.9 -13.9L175 -13.9zM138.3 -28.9L142.4 -39.2L138.7 -39.2L139.7 -45.9L145.1 -45.9L146.3 -49L144.9 -51.1L155.1 -51.1L153 -45.9L166 -45.9L165 -39.2L150.3 -39.2L146.1 -28.5L149.3 -28.5L150.6 -36.9L159.5 -36.9L158.3 -28.5L162.4 -28.5L161.5 -22.1L157.4 -22.1L156.6 -16.6L162 -17.3L161 -10.1L155.6 -9.4L154.2 0.5L143.4 0.5L144.6 -7.8L133.7 -6.4L134.7 -13.6L145.6 -15L146.6 -22.1L137.4 -22.1L138.3 -28.9zM207.8 -20.4L214.1 -39.9L205.3 -39.9L206.6 -49.8L262.7 -49.8L261.3 -39.9L248.9 -39.9L249.3 -43.1L218.1 -43.1L217.7 -40.4L226.1 -40.4L225.2 -38L259.6 -38L258.7 -31.8L223 -31.8L221.4 -27.1L259.4 -27.1L256.3 -4.4Q256.1 -3.4 255.6 -2.5Q255 -1.6 254.2 -0.9Q253.4 -0.2 252.5 0.2Q251.5 0.6 250.4 0.6L226.9 0.6L233.4 -6.4L242.6 -6.4L244.5 -20.4L207.8 -20.4zM240.3 -16.3L239.3 -9.8L201 -9.8L202 -16.3L240.3 -16.3zM314.6 -49.8L304.7 -34.8L329.6 -34.8L328.7 -27.9L315.9 -27.9L326.7 0.6L311.6 0.6L300.9 -27.9L300.2 -27.9L281.5 0.6L266.5 0.6L285.2 -27.9L272.6 -27.9L273.5 -34.8L289.7 -34.8L298.4 -48L296.8 -49.8L314.6 -49.8zM391.6 -0.6L331.4 -0.6L332.6 -8.8L355.8 -8.8L357.7 -22.5L338.6 -22.5L339.8 -30.7L358.8 -30.7L360.4 -41.6L338.5 -41.6L339.7 -49.8L397.2 -49.8L396 -41.6L374 -41.6L372.5 -30.7L391.7 -30.7L390.6 -22.5L371.4 -22.5L369.5 -8.8L392.8 -8.8L391.6 -0.6z" style="" fill="#333333" id="namepathdata"/></g></g>
              <g class="slogan"><g id="sloganDefaultGroup"/></g>
            </g>
            <g class="border">
            </g>
          </g>
          
          <defs id="defs">
            <mask xmlns="http://www.w3.org/2000/svg" id="mask">
                <rect id="showAll" fill="white" x="126.14999999999999" y="-208.89999999999998" width="147.7" height="147.7"/>
                <rect id="hideNameBg" fill="black" x="0" y="0" width="0" height="0" stroke-width="2" stroke="black"/>
                <rect id="hideSloganBg" fill="black" x="0" y="0" width="0" height="0" stroke-width="2" stroke="black"/>
            <path d="M51.1 -30L50.8 -27.3L15.2 -27.3L15.5 -30L3.2 -30L20.9 -49.2L19.3 -51.2L50 -51.2L63.4 -30L51.1 -30zM44.8 0.6L43.8 -1.2L5.8 0.6L6.8 -6L19.2 -17L2.8 -17L3.8 -23.8L61.2 -23.8L60.3 -17L34.2 -17L22.7 -6.8L40.4 -7.8L37.8 -12.9L50.1 -12.9L57.1 0.6L44.8 0.6zM20.7 -34.1L47.2 -34.1L40.7 -44.4L30 -44.4L20.7 -34.1zM82.1 0.6L98.8 -17.6L88.6 -34.7L90.5 -47.8L101.5 -47.8L100.1 -37.7L107.3 -25.5L118.4 -37.7L119.8 -47.8L130.8 -47.8L129 -34.7L113.8 -18.1L126 0.6L112.9 0.6L105.8 -9.9L96.1 0.6L82.1 0.6zM67.8 0.6L72.3 -30.7L68.3 -30.7L69.2 -37.5L85.7 -37.5L81.7 -9.2L86.6 -10.4L85.6 -3.5L67.8 0.6zM104.7 -48.5L102.4 -51.2L117.4 -51.2L115.7 -38.9L103.4 -38.9L104.7 -48.5zM84.1 -49.8L86.6 -40.2L75.7 -40.2L73.1 -49.8L84.1 -49.8zM175 -13.9L176.7 -12.2L182.6 -17L163.9 -17L167.8 -26.6L163.3 -26.6L164.2 -33.3L170.5 -33.3L172.7 -38.7L167.6 -38.7L168.6 -45.3L175.3 -45.3L177 -49.4L175.2 -51.2L188.9 -51.2L186.6 -45.3L197.4 -45.3L196.5 -38.7L184.1 -38.7L182.2 -33.3L197.5 -33.3L196.6 -26.6L179.6 -26.6L178.3 -23.2L193.9 -23.2L192.6 -14.7L182.6 -6.4L189.7 0.6L176.8 0.6L162.9 -13.9L175 -13.9zM138.3 -28.9L142.4 -39.2L138.7 -39.2L139.7 -45.9L145.1 -45.9L146.3 -49L144.9 -51.1L155.1 -51.1L153 -45.9L166 -45.9L165 -39.2L150.3 -39.2L146.1 -28.5L149.3 -28.5L150.6 -36.9L159.5 -36.9L158.3 -28.5L162.4 -28.5L161.5 -22.1L157.4 -22.1L156.6 -16.6L162 -17.3L161 -10.1L155.6 -9.4L154.2 0.5L143.4 0.5L144.6 -7.8L133.7 -6.4L134.7 -13.6L145.6 -15L146.6 -22.1L137.4 -22.1L138.3 -28.9zM207.8 -20.4L214.1 -39.9L205.3 -39.9L206.6 -49.8L262.7 -49.8L261.3 -39.9L248.9 -39.9L249.3 -43.1L218.1 -43.1L217.7 -40.4L226.1 -40.4L225.2 -38L259.6 -38L258.7 -31.8L223 -31.8L221.4 -27.1L259.4 -27.1L256.3 -4.4Q256.1 -3.4 255.6 -2.5Q255 -1.6 254.2 -0.9Q253.4 -0.2 252.5 0.2Q251.5 0.6 250.4 0.6L226.9 0.6L233.4 -6.4L242.6 -6.4L244.5 -20.4L207.8 -20.4zM240.3 -16.3L239.3 -9.8L201 -9.8L202 -16.3L240.3 -16.3zM314.6 -49.8L304.7 -34.8L329.6 -34.8L328.7 -27.9L315.9 -27.9L326.7 0.6L311.6 0.6L300.9 -27.9L300.2 -27.9L281.5 0.6L266.5 0.6L285.2 -27.9L272.6 -27.9L273.5 -34.8L289.7 -34.8L298.4 -48L296.8 -49.8L314.6 -49.8zM391.6 -0.6L331.4 -0.6L332.6 -8.8L355.8 -8.8L357.7 -22.5L338.6 -22.5L339.8 -30.7L358.8 -30.7L360.4 -41.6L338.5 -41.6L339.7 -49.8L397.2 -49.8L396 -41.6L374 -41.6L372.5 -30.7L391.7 -30.7L390.6 -22.5L371.4 -22.5L369.5 -8.8L392.8 -8.8L391.6 -0.6z" style="stroke-width: 0;" fill="#000000" id="masknamepathdata" stroke="#000000" paint-order="stroke" transform="matrix(1,0,0,1,0,0)"/></mask>
          </defs>
          
        </g>
        </svg>